<?xml version="1.0" standalone="no"?>
<svg version="1.0" xmlns="http://www.w3.org/2000/svg"
 width="4096.000000pt" height="4096.000000pt" viewBox="0 0 4096.000000 4096.000000"
 preserveAspectRatio="xMidYMid meet">

<g transform="translate(0.000000,4096.000000) scale(0.100000,-0.100000)"
fill="#000000" stroke="none">
<path d="M14510 32064 c-1156 -55 -2144 -311 -3115 -808 -702 -359 -1288 -787
-1850 -1351 -817 -818 -1397 -1757 -1760 -2849 -482 -1446 -509 -2989 -80
-4456 303 -1038 826 -1979 1560 -2810 136 -154 10519 -10549 10667 -10679 103
-90 208 -149 333 -187 77 -22 109 -26 215 -26 187 -1 333 45 474 146 34 25
2455 2440 5382 5368 5536 5539 5422 5422 5698 5781 762 992 1269 2195 1446
3432 55 388 74 667 74 1080 0 348 -10 536 -45 845 -229 2027 -1276 3853 -2904
5065 -1482 1104 -3342 1608 -5200 1410 -1337 -143 -2622 -651 -3675 -1453
-314 -239 -447 -358 -887 -796 l-363 -360 -382 380 c-389 386 -487 476 -747
683 -1145 913 -2570 1464 -4066 1571 -158 11 -648 20 -775 14z m675 -604
c1452 -96 2782 -615 3883 -1517 199 -163 272 -232 762 -719 328 -326 489 -479
520 -494 62 -32 161 -38 231 -15 51 17 86 49 549 509 491 488 606 594 853 790
1004 794 2209 1284 3497 1420 503 53 1121 46 1610 -19 1376 -184 2631 -761
3645 -1676 148 -134 412 -399 536 -539 879 -992 1447 -2237 1628 -3567 48
-349 56 -479 56 -928 0 -514 -16 -708 -91 -1160 -204 -1224 -755 -2385 -1580
-3325 -55 -63 -2478 -2494 -5383 -5402 -3780 -3783 -5295 -5293 -5325 -5308
-53 -25 -128 -26 -181 -1 -48 23 -10607 10582 -10752 10752 -392 461 -678 890
-932 1399 -377 757 -598 1535 -688 2430 -14 138 -18 268 -18 610 0 444 7 573
51 900 230 1738 1102 3290 2464 4385 1078 867 2403 1380 3805 1474 175 12 686
12 860 1z"/>
<path d="M14475 30114 c-156 -28 -533 -127 -735 -194 -347 -115 -581 -213
-895 -374 -1361 -698 -2411 -1868 -2956 -3294 -52 -136 -59 -161 -59 -225 1
-118 57 -208 165 -265 74 -38 178 -38 257 1 92 45 115 81 214 330 95 239 269
599 385 792 737 1235 1900 2135 3267 2529 103 30 270 73 372 95 205 46 252 67
307 139 115 151 60 371 -111 447 -70 31 -117 35 -211 19z"/>
<path d="M9677 24296 c-88 -32 -151 -97 -182 -185 -50 -142 38 -1154 116
-1330 101 -229 428 -232 535 -6 36 77 38 116 10 275 -40 232 -65 485 -77 770
-10 238 -14 270 -34 315 -49 111 -131 166 -255 172 -48 2 -89 -2 -113 -11z"/>
</g>
</svg>
